{
.appVersion = 961;
copyright = "Copyright 2017 Google Inc. All Rights Reserved.";
customParameters = (
{
name = glyphOrder;
value = (
.notdef,
NULL,
CR,
space,
uni00A0,
uni1680,
uni1681,
uni1682,
uni1683,
uni1684,
uni1685,
uni1686,
uni1687,
uni1688,
uni1689,
uni168A,
uni168B,
uni168C,
uni168D,
uni168E,
uni168F,
uni1690,
uni1691,
uni1692,
uni1693,
uni1694,
uni1695,
uni1696,
uni1697,
uni1698,
uni1699,
uni169A,
uni169B,
uni169C
);
},
{
name = description;
value = "Designed by Monotype design team.";
},
{
name = license;
value = "This Font Software is licensed under the SIL Open Font License, Version 1.1. This Font Software is distributed on an \"AS IS\" BASIS, WITHOUT WARRANTIES OR CONDITIONS OF ANY KIND, either express or implied. See the SIL Open Font License for the specific language, permissions and limitations governing your use of this Font Software.";
},
{
name = licenseURL;
value = "http://scripts.sil.org/OFL";
},
{
name = vendorID;
value = GOOG;
},
{
name = unicodeRanges;
value = (
0,
1,
78
);
},
{
name = trademark;
value = "Noto is a trademark of Google Inc.";
},
{
name = "Has WWS Names";
value = 1;
},
{
name = versionString;
value = "Version 1.900";
},
{
name = fsType;
value = (
);
}
);
date = "2017-01-13 14:04:42 +0000";
designer = "Monotype Design Team";
designerURL = "http://www.monotype.com/studio";
disablesAutomaticAlignment = 1;
disablesNiceNames = 1;
familyName = "Noto Sans Ogham";
fontMaster = (
{
alignmentZones = (
"{1069, 15}",
"{695, 15}",
"{536, 15}",
"{0, -15}",
"{-100, -15}"
);
ascender = 1069;
capHeight = 695;
customParameters = (
{
name = typoAscender;
value = 1069;
},
{
name = typoDescender;
value = -293;
},
{
name = typoLineGap;
value = 0;
},
{
name = winAscent;
value = 1069;
},
{
name = winDescent;
value = 293;
},
{
name = hheaAscender;
value = 1069;
},
{
name = hheaDescender;
value = -293;
},
{
name = hheaLineGap;
value = 0;
},
{
name = underlinePosition;
value = -100;
},
{
name = underlineThickness;
value = 50;
},
{
name = panose;

glyphs = (
{
glyphname = .notdef;
lastChange = "2017-01-13 14:35:45 +0000";
layers = (
{
hints = (
{
origin = "{0, 3}";
target = "{1, 3}";
},
{
origin = "{1, 1}";
target = "{0, 1}";
},
{
horizontal = 1;
origin = "{0, 3}";
target = "{1, 3}";
},
{
horizontal = 1;
origin = "{1, 0}";
target = "{0, 2}";
}
);
layerId = UUID0;
paths = (
{
closed = 1;
nodes = (
"505 0 LINE",
"505 714 LINE",
"94 714 LINE",
"94 0 LINE"
);
},
{
closed = 1;
nodes = (
"145 663 LINE",
"454 663 LINE",
"454 51 LINE",
"145 51 LINE"
);
}
);
width = 600;
}
);
},
{
glyphname = uni1680;
lastChange = "2017-01-13 14:35:45 +0000";
layers = (
{
layerId = UUID0;
paths = (
{
closed = 1;
nodes = (
"479 281 LINE",
"479 314 LINE",
"0 314 LINE",
"0 281 LINE"
);
}
);
width = 445;
}
);
unicode = 1680;
},
{
glyphname = uni1681;
lastChange = "2017-01-13 14:35:45 +0000";
layers = (
{
layerId = UUID0;
paths = (
{
closed = 1;
nodes = (
"187 -100 LINE",
"187 281 LINE",
"335 281 LINE",
"335 314 LINE",
"0 314 LINE",
"0 281 LINE",
"114 281 LINE",
"114 -100 LINE"
);
}
);
width = 301;
}
);
unicode = 1681;
},
{
glyphname = uni1682;
lastChange = "2017-01-13 14:35:45 +0000";
layers = (
{
layerId = UUID0;
paths = (
{
closed = 1;
nodes = (
"187 -100 LINE",
"187 281 LINE",
"258 281 LINE",
"258 -100 LINE",
"331 -100 LINE",
"331 281 LINE",
"479 281 LINE",
"479 314 LINE",
"0 314 LINE",
"0 281 LINE",
"114 281 LINE",
"114 -100 LINE"
);
}
);
width = 445;
}
);
unicode = 1682;
},
{
glyphname = uni1683;
lastChange = "2017-01-13 14:35:45 +0000";
layers = (
{
layerId = UUID0;
paths = (
{
closed = 1;
nodes = (
"187 -100 LINE",
"187 281 LINE",
"258 281 LINE",
"258 -100 LINE",
"331 -100 LINE",
"331 281 LINE",
"402 281 LINE",
"402 -100 LINE",
"475 -100 LINE",
"475 281 LINE",
"623 281 LINE",
"623 314 LINE",
"0 314 LINE",
"0 281 LINE",
"114 281 LINE",
"114 -100 LINE"
);
}
);
width = 589;
}
);
unicode = 1683;
},
{
glyphname = uni1684;
lastChange = "2017-01-13 14:35:34 +0000";
layers = (
{
layerId = UUID0;
paths = (
{
closed = 1;
nodes = (
"187 -100 LINE",
"187 281 LINE",
"258 281 LINE",
"258 -100 LINE",
"331 -100 LINE",
"331 281 LINE",
"402 281 LINE",
"402 -100 LINE",
"475 -100 LINE",
"475 281 LINE",
"546 281 LINE",
"546 -100 LINE",
"619 -100 LINE",
"619 281 LINE",
"767 281 LINE",
"767 314 LINE",
"0 314 LINE",
"0 281 LINE",
"114 281 LINE",
"114 -100 LINE"
);
}
);
width = 733;
}
);
unicode = 1684;
},
{
glyphname = uni1685;
lastChange = "2017-01-13 14:35:45 +0000";
layers = (
{
layerId = UUID0;
paths = (
{
closed = 1;
nodes = (
"187 -100 LINE",
"187 281 LINE",
"258 281 LINE",
"258 -100 LINE",
"331 -100 LINE",
"331 281 LINE",
"402 281 LINE",
"402 -100 LINE",
"475 -100 LINE",
"475 281 LINE",
"546 281 LINE",
"546 -100 LINE",
"619 -100 LINE",
"619 281 LINE",
"690 281 LINE",
"690 -100 LINE",
"763 -100 LINE",
"763 281 LINE",
"911 281 LINE",
"911 314 LINE",
"0 314 LINE",
"0 281 LINE",
"114 281 LINE",
"114 -100 LINE"
);
}
);
width = 877;
}
);
unicode = 1685;
},
{
glyphname = uni1686;
lastChange = "2017-01-13 14:35:45 +0000";
layers = (
{
layerId = UUID0;
paths = (
{
closed = 1;
nodes = (
"335 281 LINE",
"335 314 LINE",
"187 314 LINE",
"187 695 LINE",
"114 695 LINE",
"114 314 LINE",
"0 314 LINE",
"0 281 LINE"
);
}
);
width = 301;
}
);
unicode = 1686;
},
{
glyphname = uni1687;
lastChange = "2017-01-13 14:35:45 +0000";
layers = (
{
layerId = UUID0;
paths = (
{
closed = 1;
nodes = (
"479 281 LINE",
"479 314 LINE",
"331 314 LINE",
"331 695 LINE",
"258 695 LINE",
"258 314 LINE",
"187 314 LINE",
"187 695 LINE",
"114 695 LINE",
"114 314 LINE",
"0 314 LINE",
"0 281 LINE"
);
}
);
width = 445;
}
);
unicode = 1687;
},
{
glyphname = uni1688;
lastChange = "2017-01-13 14:35:45 +0000";
layers = (
{
layerId = UUID0;
paths = (
{
closed = 1;
nodes = (
"623 281 LINE",
"623 314 LINE",
"475 314 LINE",
"475 695 LINE",
"402 695 LINE",
"402 314 LINE",
"331 314 LINE",
"331 695 LINE",
"258 695 LINE",
"258 314 LINE",
"187 314 LINE",
"187 695 LINE",
"114 695 LINE",
"114 314 LINE",
"0 314 LINE",
"0 281 LINE"
);
}
);
width = 589;
}
);
unicode = 1688;
},
{
glyphname = uni1689;
lastChange = "2017-01-13 14:35:45 +0000";
layers = (
{
layerId = UUID0;
paths = (
{
closed = 1;
nodes = (
"767 281 LINE",
"767 314 LINE",
"619 314 LINE",
"619 695 LINE",
"546 695 LINE",
"546 314 LINE",
"475 314 LINE",
"475 695 LINE",
"402 695 LINE",
"402 314 LINE",
"331 314 LINE",
"331 695 LINE",
"258 695 LINE",
"258 314 LINE",
"187 314 LINE",
"187 695 LINE",
"114 695 LINE",
"114 314 LINE",
"0 314 LINE",
"0 281 LINE"
);
}
);
width = 733;
}
);
unicode = 1689;
},
{
glyphname = uni168A;
lastChange = "2017-01-13 14:35:45 +0000";
layers = (
{
layerId = UUID0;
paths = (
{
closed = 1;
nodes = (
"911 281 LINE",
"911 314 LINE",
"763 314 LINE",
"763 695 LINE",
"690 695 LINE",
"690 314 LINE",
"619 314 LINE",
"619 695 LINE",
"546 695 LINE",
"546 314 LINE",
"475 314 LINE",
"475 695 LINE",
"402 695 LINE",
"402 314 LINE",
"331 314 LINE",
"331 695 LINE",
"258 695 LINE",
"258 314 LINE",
"187 314 LINE",
"187 695 LINE",
"114 695 LINE",
"114 314 LINE",
"0 314 LINE",
"0 281 LINE"
);
}
);
width = 877;
}
);
unicode = 168A;
},
{
glyphname = uni168B;
lastChange = "2017-01-13 14:35:45 +0000";
layers = (
{
layerId = UUID0;
paths = (
{
closed = 1;
nodes = (
"88 -100 LINE",
"183 281 LINE",
"335 281 LINE",
"335 314 LINE",
"191 314 LINE",
"287 695 LINE",
"214 695 LINE",
"118 314 LINE",
"0 314 LINE",
"0 281 LINE",
"110 281 LINE",
"15 -100 LINE"
);
}
);
width = 301;
}
);
unicode = 168B;
},
{
glyphname = uni168C;
lastChange = "2017-01-13 14:35:45 +0000";
layers = (
{
layerId = UUID0;
paths = (
{
closed = 1;
nodes = (
"88 -100 LINE",
"183 281 LINE",
"254 281 LINE",
"159 -100 LINE",
"232 -100 LINE",
"327 281 LINE",
"479 281 LINE",
"479 314 LINE",
"335 314 LINE",
"431 695 LINE",
"358 695 LINE",
"262 314 LINE",
"191 314 LINE",
"287 695 LINE",
"214 695 LINE",
"118 314 LINE",
"0 314 LINE",
"0 281 LINE",
"110 281 LINE",
"15 -100 LINE"
);
}
);
width = 445;
}
);
unicode = 168C;
},
{
glyphname = uni168D;
lastChange = "2017-01-13 14:35:45 +0000";
layers = (
{
layerId = UUID0;
paths = (
{
closed = 1;
nodes = (
"88 -100 LINE",
"183 281 LINE",
"254 281 LINE",
"159 -100 LINE",
"232 -100 LINE",
"327 281 LINE",
"398 281 LINE",
"303 -100 LINE",
"376 -100 LINE",
"471 281 LINE",
"623 281 LINE",
"623 314 LINE",
"479 314 LINE",
"575 695 LINE",
"502 695 LINE",
"406 314 LINE",
"335 314 LINE",
"431 695 LINE",
"358 695 LINE",
"262 314 LINE",
"191 314 LINE",
"287 695 LINE",
"214 695 LINE",
"118 314 LINE",
"0 314 LINE",
"0 281 LINE",
"110 281 LINE",
"15 -100 LINE"
);
}
);
width = 589;
}
);
unicode = 168D;
},
{
glyphname = uni168E;
lastChange = "2017-01-13 14:35:45 +0000";
layers = (
{
layerId = UUID0;
paths = (
{
closed = 1;
nodes = (
"88 -100 LINE",
"183 281 LINE",
"254 281 LINE",
"159 -100 LINE",
"232 -100 LINE",
"327 281 LINE",
"398 281 LINE",
"303 -100 LINE",
"376 -100 LINE",
"471 281 LINE",
"542 281 LINE",
"447 -100 LINE",
"520 -100 LINE",
"615 281 LINE",
"767 281 LINE",
"767 314 LINE",
"623 314 LINE",
"719 695 LINE",
"646 695 LINE",
"550 314 LINE",
"479 314 LINE",
"575 695 LINE",
"502 695 LINE",
"406 314 LINE",
"335 314 LINE",
"431 695 LINE",
"358 695 LINE",
"262 314 LINE",
"191 314 LINE",
"287 695 LINE",
"214 695 LINE",
"118 314 LINE",
"0 314 LINE",
"0 281 LINE",
"110 281 LINE",
"15 -100 LINE"
);
}
);
width = 733;
}
);
unicode = 168E;
},
{
glyphname = uni168F;
lastChange = "2017-01-13 14:35:45 +0000";
layers = (
{
layerId = UUID0;
paths = (
{
closed = 1;
nodes = (
"88 -100 LINE",
"183 281 LINE",
"254 281 LINE",
"159 -100 LINE",
"232 -100 LINE",
"327 281 LINE",
"398 281 LINE",
"303 -100 LINE",
"376 -100 LINE",
"471 281 LINE",
"542 281 LINE",
"447 -100 LINE",
"520 -100 LINE",
"615 281 LINE",
"686 281 LINE",
"591 -100 LINE",
"664 -100 LINE",
"759 281 LINE",
"911 281 LINE",
"911 314 LINE",
"767 314 LINE",
"863 695 LINE",
"790 695 LINE",
"694 314 LINE",
"623 314 LINE",
"719 695 LINE",
"646 695 LINE",
"550 314 LINE",
"479 314 LINE",
"575 695 LINE",
"502 695 LINE",
"406 314 LINE",
"335 314 LINE",
"431 695 LINE",
"358 695 LINE",
"262 314 LINE",
"191 314 LINE",
"287 695 LINE",
"214 695 LINE",
"118 314 LINE",
"0 314 LINE",
"0 281 LINE",
"110 281 LINE",
"15 -100 LINE"
);
}
);
width = 877;
}
);
unicode = 168F;
},
{
glyphname = uni1690;
lastChange = "2017-01-13 14:35:45 +0000";
layers = (
{
layerId = UUID0;
paths = (
{
closed = 1;
nodes = (
"224 281 LINE",
"335 281 LINE",
"335 314 LINE",
"224 314 LINE",
"151 386 LINE",
"77 314 LINE",
"0 314 LINE",
"0 281 LINE",
"77 281 LINE",
"151 210 LINE"
);
}
);
width = 301;
}
);
unicode = 1690;
},
{
glyphname = uni1691;
lastChange = "2017-01-13 14:35:45 +0000";
layers = (
{
layerId = UUID0;
paths = (
{
closed = 1;
nodes = (
"222 279 LINE",
"295 210 LINE",
"368 281 LINE",
"479 281 LINE",
"479 314 LINE",
"368 314 LINE",
"295 386 LINE",
"222 315 LINE",
"151 386 LINE",
"77 314 LINE",
"0 314 LINE",
"0 281 LINE",
"77 281 LINE",
"151 210 LINE"
);
}
);
width = 445;
}
);
unicode = 1691;
},
{
glyphname = uni1692;
lastChange = "2017-01-13 14:35:45 +0000";
layers = (
{
layerId = UUID0;
paths = (
{
closed = 1;
nodes = (
"222 279 LINE",
"295 210 LINE",
"366 279 LINE",
"439 210 LINE",
"512 281 LINE",
"623 281 LINE",
"623 314 LINE",
"512 314 LINE",
"439 386 LINE",
"366 315 LINE",
"295 386 LINE",
"222 315 LINE",
"151 386 LINE",
"77 314 LINE",
"0 314 LINE",
"0 281 LINE",
"77 281 LINE",
"151 210 LINE"
);
}
);
width = 589;
}
);
unicode = 1692;
},
{
glyphname = uni1693;
lastChange = "2017-01-13 14:35:45 +0000";
layers = (
{
layerId = UUID0;
paths = (
{
closed = 1;
nodes = (
"222 279 LINE",
"295 210 LINE",
"366 279 LINE",
"439 210 LINE",
"510 279 LINE",
"583 210 LINE",
"656 281 LINE",
"767 281 LINE",
"767 314 LINE",
"656 314 LINE",
"583 386 LINE",
"510 315 LINE",
"439 386 LINE",
"366 315 LINE",
"295 386 LINE",
"222 315 LINE",
"151 386 LINE",
"77 314 LINE",
"0 314 LINE",
"0 281 LINE",
"77 281 LINE",
"151 210 LINE"
);
}
);
width = 733;
}
);
unicode = 1693;
},
{
glyphname = uni1694;
lastChange = "2017-01-13 14:35:45 +0000";
layers = (
{
layerId = UUID0;
paths = (
{
closed = 1;
nodes = (
"222 279 LINE",
"295 210 LINE",
"366 279 LINE",
"439 210 LINE",
"510 279 LINE",
"583 210 LINE",
"654 279 LINE",
"727 210 LINE",
"800 281 LINE",
"911 281 LINE",
"911 314 LINE",
"800 314 LINE",
"727 386 LINE",
"654 315 LINE",
"583 386 LINE",
"510 315 LINE",
"439 386 LINE",
"366 315 LINE",
"295 386 LINE",
"222 315 LINE",
"151 386 LINE",
"77 314 LINE",
"0 314 LINE",
"0 281 LINE",
"77 281 LINE",
"151 210 LINE"
);
}
);
width = 877;
}
);
unicode = 1694;
},
{
glyphname = uni1695;
lastChange = "2017-01-13 14:35:45 +0000";
layers = (
{
layerId = UUID0;
paths = (
{
closed = 1;
nodes = (
"88 -100 LINE",
"150 150 LINE",
"213 -100 LINE",
"286 -100 LINE",
"190 281 LINE",
"335 281 LINE",
"335 314 LINE",
"191 314 LINE",
"287 695 LINE",
"214 695 LINE",
"150 442 LINE",
"87 695 LINE",
"14 695 LINE",
"109 314 LINE",
"0 314 LINE",
"0 281 LINE",
"110 281 LINE",
"15 -100 LINE"
);
}
);
width = 301;
}
);
unicode = 1695;
},
{
glyphname = uni1696;
lastChange = "2017-01-13 14:35:45 +0000";
layers = (
{
layerId = UUID0;
paths = (
{
closed = 1;
nodes = (
"431 281 LINE",
"479 281 LINE",
"479 314 LINE",
"431 314 LINE",
"223 695 LINE",
"14 314 LINE",
"0 314 LINE",
"0 281 LINE",
"14 281 LINE",
"223 -100 LINE"
);
},
{
closed = 1;
nodes = (
"87 281 LINE",
"359 281 LINE",
"223 32 LINE"
);
},
{
closed = 1;
nodes = (
"223 563 LINE",
"359 314 LINE",
"87 314 LINE"
);
}
);
width = 445;
}
);
unicode = 1696;
},
{
glyphname = uni1697;
lastChange = "2017-01-13 14:35:45 +0000";
layers = (
{
layerId = UUID0;
paths = (
{
closed = 1;
nodes = (
"475 -100 LINE",
"475 155 LINE",
"294 155 LINE",
"294 82 LINE",
"402 82 LINE",
"402 -27 LINE",
"187 -27 LINE",
"187 281 LINE",
"623 281 LINE",
"623 314 LINE",
"0 314 LINE",
"0 281 LINE",
"114 281 LINE",
"114 -100 LINE"
);
}
);
width = 589;
}
);
unicode = 1697;
},
{
glyphname = uni1698;
lastChange = "2017-01-13 14:35:45 +0000";
layers = (
{
layerId = UUID0;
paths = (
{
closed = 1;
nodes = (
"100 -100 LINE",
"217 50 LINE",
"257 -1 LINE",
"180 -100 LINE",
"255 -100 LINE",
"295 -49 LINE",
"335 -100 LINE",
"410 -100 LINE",
"332 -1 LINE",
"372 50 LINE",
"490 -100 LINE",
"565 -100 LINE",
"410 98 LINE",
"553 281 LINE",
"623 281 LINE",
"623 314 LINE",
"0 314 LINE",
"0 281 LINE",
"36 281 LINE",
"180 98 LINE",
"25 -100 LINE"
);
},
{
closed = 1;
nodes = (
"255 98 LINE",
"295 149 LINE",
"335 98 LINE",
"295 47 LINE"
);
},
{
closed = 1;
nodes = (
"111 281 LINE",
"191 281 LINE",
"257 197 LINE",
"217 146 LINE"
);
},
{
closed = 1;
nodes = (
"266 281 LINE",
"323 281 LINE",
"295 244 LINE"
);
},
{
closed = 1;
nodes = (
"332 196 LINE",
"398 281 LINE",
"478 281 LINE",
"372 145 LINE"
);
}
);
width = 589;
}
);
unicode = 1698;
},
{
glyphname = uni1699;
lastChange = "2017-01-13 14:35:45 +0000";
layers = (
{
layerId = UUID0;
paths = (
{
closed = 1;
nodes = (
"767 281 LINE",
"767 314 LINE",
"619 314 LINE",
"619 385 LINE",
"690 385 LINE",
"690 458 LINE",
"619 458 LINE",
"619 529 LINE",
"690 529 LINE",
"690 602 LINE",
"619 602 LINE",
"619 673 LINE",
"690 673 LINE",
"690 746 LINE",
"619 746 LINE",
"619 817 LINE",
"690 817 LINE",
"690 890 LINE",
"619 890 LINE",
"619 961 LINE",
"546 961 LINE",
"546 890 LINE",
"475 890 LINE",
"475 961 LINE",
"402 961 LINE",
"402 890 LINE",
"331 890 LINE",
"331 961 LINE",
"258 961 LINE",
"258 890 LINE",
"187 890 LINE",
"187 961 LINE",
"114 961 LINE",
"114 890 LINE",
"43 890 LINE",
"43 817 LINE",
"114 817 LINE",
"114 746 LINE",
"43 746 LINE",
"43 673 LINE",
"114 673 LINE",
"114 602 LINE",
"43 602 LINE",
"43 529 LINE",
"114 529 LINE",
"114 458 LINE",
"43 458 LINE",
"43 385 LINE",
"114 385 LINE",
"114 314 LINE",
"0 314 LINE",
"0 281 LINE"
);
},
{
closed = 1;
nodes = (
"187 385 LINE",
"258 385 LINE",
"258 314 LINE",
"187 314 LINE"
);
},
{
closed = 1;
nodes = (
"187 529 LINE",
"258 529 LINE",
"258 458 LINE",
"187 458 LINE"
);
},
{
closed = 1;
nodes = (
"331 385 LINE",
"402 385 LINE",
"402 314 LINE",
"331 314 LINE"
);
},
{
closed = 1;
nodes = (
"475 385 LINE",
"546 385 LINE",
"546 314 LINE",
"475 314 LINE"
);
},
{
closed = 1;
nodes = (
"331 529 LINE",
"402 529 LINE",
"402 458 LINE",
"331 458 LINE"
);
},
{
closed = 1;
nodes = (
"187 673 LINE",
"258 673 LINE",
"258 602 LINE",
"187 602 LINE"
);
},
{
closed = 1;
nodes = (
"187 817 LINE",
"258 817 LINE",
"258 746 LINE",
"187 746 LINE"
);
},
{
closed = 1;
nodes = (
"475 529 LINE",
"546 529 LINE",
"546 458 LINE",
"475 458 LINE"
);
},
{
closed = 1;
nodes = (
"331 673 LINE",
"402 673 LINE",
"402 602 LINE",
"331 602 LINE"
);
},
{
closed = 1;
nodes = (
"331 817 LINE",
"402 817 LINE",
"402 746 LINE",
"331 746 LINE"
);
},
{
closed = 1;
nodes = (
"475 673 LINE",
"546 673 LINE",
"546 602 LINE",
"475 602 LINE"
);
},
{
closed = 1;
nodes = (
"475 817 LINE",
"546 817 LINE",
"546 746 LINE",
"475 746 LINE"
);
}
);
width = 733;
}
);
unicode = 1699;
},
{
glyphname = uni169A;
lastChange = "2017-01-13 14:35:45 +0000";
layers = (
{
layerId = UUID0;
paths = (
{
closed = 1;
nodes = (
"495 173 LINE",
"495 246 LINE",
"94 246 LINE",
"94 173 LINE"
);
},
{
closed = 1;
nodes = (
"623 281 LINE",
"623 314 LINE",
"0 314 LINE",
"0 281 LINE"
);
}
);
width = 589;
}
);
unicode = 169A;
},
{
glyphname = uni169B;
lastChange = "2017-01-13 14:35:45 +0000";
layers = (
{
layerId = UUID0;
paths = (
{
closed = 1;
nodes = (
"73 -100 LINE",
"294 281 LINE",
"489 281 LINE",
"489 314 LINE",
"294 314 LINE",
"73 695 LINE",
"0 695 LINE",
"230 298 LINE",
"0 -100 LINE"
);
}
);
width = 455;
}
);
unicode = 169B;
},
{
glyphname = uni169C;
lastChange = "2017-01-13 14:35:45 +0000";
layers = (
{
layerId = UUID0;
paths = (
{
closed = 1;
nodes = (
"455 -100 LINE",
"225 298 LINE",
"455 695 LINE",
"382 695 LINE",
"161 314 LINE",
"0 314 LINE",
"0 281 LINE",
"161 281 LINE",
"382 -100 LINE"
);
}
